<svg xmlns="http://www.w3.org/2000/svg" width="16" height="16" viewBox="0 0 16 16">
  <g id="apple_black_24dp" transform="translate(-2.873 -2.873)">
    <g id="Group_1" data-name="Group 1" transform="translate(3 3)">
      <rect id="Rectangle_1" data-name="Rectangle 1" width="16" height="16" transform="translate(-0.127 -0.127)" fill="none"/>
    </g>
    <g id="Group_2" data-name="Group 2" transform="translate(4.236 3)">
      <path id="Path_1" data-name="Path 1" d="M15.467,18.116a2.234,2.234,0,0,1-2.694.306,3.41,3.41,0,0,0-2.834,0,2.111,2.111,0,0,1-2.677-.306c-4.269-4.4-3.639-11.1,1.207-11.345a22.173,22.173,0,0,1,2.694.7c1.032-.21,2.021-.814,3.123-.735A3.776,3.776,0,0,1,17.26,8.31a3.461,3.461,0,0,0,.42,6.237,8.885,8.885,0,0,1-2.222,3.578Zm-4.391-11.4A3.582,3.582,0,0,1,14.347,3C14.6,5.257,12.3,6.936,11.076,6.718Z" transform="translate(-4.413 -3)"/>
    </g>
  </g>
</svg>
