<svg xmlns="http://www.w3.org/2000/svg" width="16" height="16.001" viewBox="0 0 16 16.001">
  <g id="Group_3" data-name="Group 3" transform="translate(-223 -220)">
    <rect id="Rectangle_2" data-name="Rectangle 2" width="16" height="16" transform="translate(223 220)" fill="none"/>
    <path id="google" d="M15.545,6.558a9.42,9.42,0,0,1,.139,1.626A7.812,7.812,0,0,1,13.3,14.069h0A7.651,7.651,0,0,1,8,16,8,8,0,1,1,8,0a7.689,7.689,0,0,1,5.352,2.082L11.068,4.366A4.347,4.347,0,0,0,8,3.166,4.836,4.836,0,0,0,3.508,9.533h0a4.853,4.853,0,0,0,7.214,2.537h0a3.7,3.7,0,0,0,1.6-2.431H8V6.559h7.545Z" transform="translate(223 220.001)" fill="#010413"/>
  </g>
</svg>
