<svg xmlns="http://www.w3.org/2000/svg" width="257.143" height="200" viewBox="0 0 257.143 200">
  <path id="cc-mastercard-brands" d="M215.58,201.437a5,5,0,1,1-5-5.223A4.99,4.99,0,0,1,215.58,201.437ZM76.83,196.214c-3.17,0-5,2.321-5,5.223s1.83,5.223,5,5.223c2.9,0,4.866-2.187,4.866-5.223C81.652,198.536,79.732,196.214,76.83,196.214Zm52.455-.134c-2.411,0-3.884,1.563-4.241,3.884h8.527C133.17,197.42,131.607,196.08,129.286,196.08Zm48.125.134c-3.036,0-4.866,2.321-4.866,5.223s1.83,5.223,4.866,5.223a4.865,4.865,0,0,0,5-5.223A4.937,4.937,0,0,0,177.411,196.214Zm47.277,11.652c0,.134.134.223.134.491,0,.134-.134.223-.134.491a1.567,1.567,0,0,0-.223.357.576.576,0,0,1-.491.223c-.134.134-.223.134-.491.134a.885.885,0,0,1-.491-.134c-.134,0-.223-.134-.357-.223-.134-.134-.223-.223-.223-.357a.812.812,0,0,1-.134-.491c0-.223,0-.357.134-.491a.84.84,0,0,1,.223-.491,1.567,1.567,0,0,1,.357-.223.812.812,0,0,1,.491-.134c.223,0,.357,0,.491.134.223.134.357.134.491.223S224.554,207.643,224.688,207.866Zm-.982.625c.223,0,.223-.134.357-.134a.543.543,0,0,0,0-.714c-.134,0-.223-.134-.491-.134h-.714v1.563h.357v-.625h.134l.491.625h.357l-.491-.58ZM257.143,54.429V211.571A21.434,21.434,0,0,1,235.714,233H21.429A21.434,21.434,0,0,1,0,211.571V54.429A21.434,21.434,0,0,1,21.429,33H235.714A21.434,21.434,0,0,1,257.143,54.429ZM28.571,116.75a61.8,61.8,0,0,0,95.982,51.518c-32.545-26.473-32.321-76.429,0-102.9A61.8,61.8,0,0,0,28.571,116.75Zm100,48.571c31.473-24.554,31.339-72.411,0-97.1C97.232,92.911,97.1,140.813,128.571,165.321ZM65.045,199.384c0-3.884-2.545-6.429-6.562-6.562a6.383,6.383,0,0,0-5.714,2.9,5.919,5.919,0,0,0-5.446-2.9,5.668,5.668,0,0,0-4.732,2.411v-1.964H38.929v16.384h3.661c0-8.437-1.116-13.482,4.018-13.482,4.554,0,3.661,4.554,3.661,13.482h3.527c0-8.17-1.116-13.482,4.018-13.482,4.554,0,3.661,4.464,3.661,13.482h3.661V199.384Zm20.045-6.116H81.563v1.964a6.434,6.434,0,0,0-5.223-2.411c-4.6,0-8.125,3.661-8.125,8.616,0,5,3.527,8.616,8.125,8.616a6.19,6.19,0,0,0,5.223-2.411V209.7h3.527ZM103.17,204.7c0-6.7-10.223-3.661-10.223-6.786,0-2.545,5.313-2.143,8.259-.491l1.473-2.9c-4.2-2.723-13.482-2.679-13.482,3.661,0,6.384,10.223,3.705,10.223,6.7,0,2.812-6.027,2.589-9.241.357l-1.562,2.813c5,3.393,14.554,2.679,14.554-3.348Zm15.8,4.152-.982-3.036c-1.7.938-5.446,1.964-5.446-1.83v-7.411h5.848v-3.3h-5.848v-5h-3.661v5h-3.393v3.259h3.393v7.455c0,7.857,7.723,6.429,10.089,4.866Zm5.937-5.982h12.277c0-7.232-3.3-10.089-7.768-10.089-4.732,0-8.125,3.527-8.125,8.616,0,9.152,10.089,10.67,15.089,6.339l-1.7-2.679C131.205,207.911,125.937,207.643,124.911,202.866Zm26.384-9.6a5.239,5.239,0,0,0-6.786,1.964v-1.964h-3.661v16.384h3.661v-9.241c0-5.179,4.241-4.509,5.714-3.75Zm4.732,8.17c0-5.089,5.179-6.741,9.241-3.75l1.7-2.9c-5.179-4.062-14.6-1.83-14.6,6.7,0,8.839,10,10.625,14.6,6.7l-1.7-2.9C161.161,208.179,156.027,206.438,156.027,201.437Zm29.777-8.17h-3.661v1.964c-3.705-4.911-13.348-2.143-13.348,6.205,0,8.571,10,11.027,13.348,6.205V209.7H185.8Zm15.045,0c-1.071-.536-4.911-1.295-6.786,1.964v-1.964h-3.527v16.384h3.527v-9.241c0-4.911,4.018-4.6,5.714-3.75l1.071-3.393Zm17.991-6.652h-3.527v8.616c-3.661-4.866-13.348-2.277-13.348,6.205,0,8.661,10.045,10.982,13.348,6.205V209.7h3.527v-23.08Zm3.393-33.527v2.054h.357v-2.054h.848v-.357h-2.054v.357h.848Zm2.946,55.268a1.361,1.361,0,0,0-.134-.714c-.134-.134-.223-.357-.357-.491s-.357-.223-.491-.357c-.223,0-.491-.134-.714-.134a4.744,4.744,0,0,1-.625.134,2.332,2.332,0,0,0-.491.357.7.7,0,0,0-.357.491,1.361,1.361,0,0,0-.134.714,1.3,1.3,0,0,0,.134.625.7.7,0,0,0,.357.491,1.547,1.547,0,0,0,.491.357,1.213,1.213,0,0,0,.625.134,1.361,1.361,0,0,0,.714-.134c.134-.134.357-.223.491-.357s.223-.357.357-.491A1.3,1.3,0,0,0,225.179,208.357Zm1.429-55.67h-.625l-.714,1.563-.714-1.562h-.625V155.1h.357v-1.83L225,154.83h.491l.625-1.562v1.83h.491Zm1.964-35.938a61.8,61.8,0,0,0-95.982-51.429c32.188,26.473,32.679,76.563,0,102.9a61.8,61.8,0,0,0,95.982-51.473Z" transform="translate(0 -33)" fill="#0466c8"/>
</svg>
