<svg xmlns="http://www.w3.org/2000/svg" width="282" height="282" viewBox="0 0 282 282">
  <g id="Group_2" data-name="Group 2" transform="translate(-785 -290)">
    <rect id="Rectangle_1" data-name="Rectangle 1" width="282" height="282" transform="translate(785 290)" fill="none"/>
    <g id="Group_1" data-name="Group 1" transform="translate(69 54)">
      <g id="man" transform="translate(764 237)">
        <path id="Path_1" data-name="Path 1" d="M264.468,252.3v23.765a4.841,4.841,0,0,1-4.843,4.843H82.871a4.841,4.841,0,0,1-4.843-4.843V252.3a45.145,45.145,0,0,1,45.151-45.139,25.064,25.064,0,0,0,21.041-11.416c4.488-6.9,4.025-12.895,4.025-17.742l.091-.224a59.934,59.934,0,0,1-37.016-55.387v-1.895a14.93,14.93,0,0,1-15.133-14.855V80.481c-.194-8.759.206-39.649,22.518-61.156,25.944-25.006,67.058-22.96,96.84-9.582a1.214,1.214,0,0,1-.042,2.228l-7.766,3.2a1.212,1.212,0,0,0,.333,2.324l3.771.406a61.1,61.1,0,0,1,45.23,28.057,1.3,1.3,0,0,1-.157,1.5,36.624,36.624,0,0,0-10,25.157v33.033a14.857,14.857,0,0,1-14.855,14.855h-.884v1.895a59.934,59.934,0,0,1-37.016,55.387l.091.224c0,4.708-.5,10.787,4.025,17.742a25.064,25.064,0,0,0,21.041,11.416A45.145,45.145,0,0,1,264.468,252.3Z" transform="translate(-78.028 0)" fill="#ffdfba"/>
        <path id="Path_2" data-name="Path 2" d="M264.468,379.921v23.765a4.843,4.843,0,0,1-4.843,4.843H82.871a4.843,4.843,0,0,1-4.843-4.843V379.921a45.148,45.148,0,0,1,45.148-45.139,25.063,25.063,0,0,0,21.044-11.416,41.551,41.551,0,0,0,54.055,0,25.062,25.062,0,0,0,21.044,11.416A45.148,45.148,0,0,1,264.468,379.921Z" transform="translate(-78.028 -127.625)" fill="#e24945"/>
        <path id="Path_3" data-name="Path 3" d="M268.893,45.957a1.284,1.284,0,0,1-.157,1.49,36.644,36.644,0,0,0-10,25.16v33.033c0,7.5-5.65,14.855-15.738,14.855V83.1a29.055,29.055,0,0,0-29.056-29.056H152.2A29.055,29.055,0,0,0,123.145,83.1v37.391a14.93,14.93,0,0,1-15.133-14.855V80.482c-.194-8.759.206-39.649,22.518-61.156,25.942-25.007,67.06-22.959,96.837-9.58a1.213,1.213,0,0,1-.039,2.226l-7.767,3.2a1.211,1.211,0,0,0,.332,2.323l3.772.4a61.073,61.073,0,0,1,45.227,28.06Z" transform="translate(-89.852 0)" fill="#42434d"/>
        <path id="Path_4" data-name="Path 4" d="M252.882,157.627a59.929,59.929,0,0,1-59.927,59.927c-31.169,0-59.927-24.232-59.927-61.822V118.342a29.055,29.055,0,0,1,29.056-29.056h61.743a29.055,29.055,0,0,1,29.056,29.056Z" transform="translate(-99.735 -35.239)" fill="#ffebd2"/>
        <path id="Path_5" data-name="Path 5" d="M300.4,440.741H285.871a4.843,4.843,0,0,1,0-9.685H300.4a4.843,4.843,0,0,1,0,9.685Z" transform="translate(-158.147 -170.127)" fill="#fff"/>
        <path id="Path_6" data-name="Path 6" d="M179.386,202.5c9.853,6.164,2.084,21.281-8.7,16.952A59.937,59.937,0,0,1,133.028,163.8V124.519a28.928,28.928,0,0,1,5.1-16.445,7.157,7.157,0,0,1,13.062,4.339V151.7a59.49,59.49,0,0,0,28.2,50.8Z" transform="translate(-99.735 -41.417)" fill="#fff3e4"/>
        <path id="Path_7" data-name="Path 7" d="M240.271,303.849a60.091,60.091,0,0,1-47.373,0c.821-3.406.684-5.611.684-9.939l.091-.224a60.05,60.05,0,0,0,45.823,0l.091.224C239.587,298.24,239.45,300.445,240.271,303.849Z" transform="translate(-123.364 -115.911)" fill="#ffd6a6"/>
        <path id="Path_8" data-name="Path 8" d="M147.569,349.405a24.622,24.622,0,0,1-7.213,1.114c-25,.22-45.379,19.986-45.379,44.985v4.55a8.475,8.475,0,0,1-8.475,8.475H82.871a4.843,4.843,0,0,1-4.843-4.843V379.921a45.147,45.147,0,0,1,45.148-45.139,25.063,25.063,0,0,0,21.044-11.416,41.893,41.893,0,0,0,5.758,4.13C158.908,332.817,157.485,346.287,147.569,349.405Z" transform="translate(-78.028 -127.625)" fill="#ff766a"/>
        <path id="Path_9" data-name="Path 9" d="M265.705,349.405a24.622,24.622,0,0,0,7.213,1.114c25,.22,45.379,19.986,45.379,44.985v4.55a8.475,8.475,0,0,0,8.475,8.475H330.4a4.843,4.843,0,0,0,4.843-4.843V379.921A45.147,45.147,0,0,0,290.1,334.782a25.063,25.063,0,0,1-21.044-11.416,41.893,41.893,0,0,1-5.758,4.13c-8.93,5.321-7.507,18.792,2.409,21.91Z" transform="translate(-148.806 -127.625)" fill="#ce443f"/>
        <path id="Path_10" data-name="Path 10" d="M227.327,11.971c-7.117,2.929-8.132,3.575-10.6,3.192C176.975,9,142.1,25.45,130.252,64.065v.006A28.911,28.911,0,0,0,123.145,83.1v22.714c0,9.8-15.133,10.481-15.133-.177V80.481c-.194-8.759.206-39.649,22.518-61.156,25.944-25.006,67.058-22.96,96.84-9.582a1.214,1.214,0,0,1-.042,2.228Z" transform="translate(-89.852 0)" fill="#4d4e59"/>
      </g>
    </g>
  </g>
</svg>
