<svg xmlns="http://www.w3.org/2000/svg" width="257.143" height="200" viewBox="0 0 257.143 200">
  <path id="cc-visa-brands" d="M209.866,120.973s3.393,16.607,4.152,20.089H199.107c1.473-3.973,7.143-19.42,7.143-19.42-.089.134,1.473-4.062,2.366-6.652l1.25,5.982Zm47.277-67.545V210.571A21.434,21.434,0,0,1,235.714,232H21.429A21.434,21.434,0,0,1,0,210.571V53.429A21.434,21.434,0,0,1,21.429,32H235.714A21.434,21.434,0,0,1,257.143,53.429ZM68.08,165.571,96.295,96.286H77.321L59.777,143.607l-1.92-9.6-6.25-31.875c-1.027-4.42-4.2-5.67-8.125-5.848H14.6l-.312,1.384A70.843,70.843,0,0,1,33.125,105.3l15.982,60.268Zm42.143.089,11.25-69.375H103.527L92.321,165.661h17.9Zm62.455-22.679c.089-7.9-4.732-13.929-15.045-18.884-6.295-3.17-10.134-5.312-10.134-8.571.089-2.946,3.259-5.982,10.313-5.982a30.761,30.761,0,0,1,13.348,2.634l1.607.759,2.455-15a44.582,44.582,0,0,0-16.071-2.946c-17.723,0-30.179,9.464-30.268,22.946-.134,9.955,8.929,15.491,15.714,18.839,6.92,3.393,9.286,5.625,9.286,8.616-.089,4.643-5.625,6.786-10.759,6.786-7.143,0-10.982-1.116-16.83-3.705l-2.366-1.116-2.5,15.58c4.2,1.92,11.964,3.616,20,3.705,18.839.045,31.116-9.286,31.25-23.661Zm63.036,22.679L221.25,96.286H207.366c-4.286,0-7.545,1.25-9.375,5.759l-26.652,63.616h18.839s3.08-8.571,3.75-10.4h23.036c.536,2.455,2.143,10.4,2.143,10.4Z" transform="translate(0 -32)" fill="#0466c8"/>
</svg>
